<svg width="32" height="32" viewBox="0 0 32 32" fill="none" xmlns="http://www.w3.org/2000/svg">
<path d="M25.6696 25.707L25.667 26.4802L17.9326 30.9749L17.9352 30.2018L25.6696 25.707Z" fill="#589441"/>
<path d="M17.9355 30.2034L17.9329 30.9765L6.3291 24.277L6.33166 23.5039L17.9355 30.2034Z" fill="#73AE43"/>
<path d="M25.6696 26.4766L25.667 27.2497L17.9326 31.7444L17.9352 30.9713L25.6696 26.4766Z" fill="#91684B"/>
<path d="M17.9355 30.973L17.9329 31.7461L6.3291 25.0466L6.33166 24.2734L17.9355 30.973Z" fill="#A57859"/>
<path d="M25.6703 25.7073L17.9359 30.2021L6.33203 23.5025L14.0664 19.0078L25.6703 25.7073Z" fill="#A9C838"/>
<path d="M23.9816 5.875L23.9259 25.5192L18.3311 28.771L18.3867 9.12684L23.9816 5.875Z" fill="#B9B9BA"/>
<path d="M18.3865 9.12375L18.3308 28.7679L8.59766 23.1481L8.65334 3.50391L18.3865 9.12375Z" fill="#E8E8E8"/>
<path d="M23.9813 5.87311L18.3864 9.12495L8.65332 3.50511L14.2482 0.253906L23.9813 5.87311Z" fill="#F1F1F1"/>
<path d="M22.2818 6.28588L14.2492 1.64844L10.3535 3.91212L18.3868 8.54956L22.2818 6.28588Z" fill="#686868"/>
<path d="M22.9844 7.69246L22.7002 7.52734L22.7386 24.7133L23.0228 24.8784L22.9844 7.69246Z" fill="#E8E8E8"/>
<path d="M23.5911 7.3409L23.3069 7.17578L22.7002 7.52586L22.9844 7.69098L23.5911 7.3409Z" fill="#F1F1F1"/>
<path d="M22.9844 7.68992L23.0228 24.8758L23.6295 24.5258L23.5911 7.33984L22.9844 7.68992Z" fill="#D7D7D7"/>
<path d="M21.7536 8.38387L21.4688 8.21875L21.5072 25.4047L21.7913 25.5698L21.7536 8.38387Z" fill="#E8E8E8"/>
<path d="M22.3603 8.03231L22.0761 7.86719L21.4688 8.21727L21.7536 8.38239L22.3603 8.03231Z" fill="#F1F1F1"/>
<path d="M21.7539 8.38133L21.7917 25.5673L22.399 25.2172L22.3606 8.03125L21.7539 8.38133Z" fill="#D7D7D7"/>
<path d="M20.5215 9.07528L20.2373 8.91016L20.2757 26.0961L20.5599 26.2612L20.5215 9.07528Z" fill="#E8E8E8"/>
<path d="M21.1282 8.72371L20.844 8.55859L20.2373 8.90931L20.5215 9.07443L21.1282 8.72371Z" fill="#F1F1F1"/>
<path d="M20.5215 9.07338L20.5599 26.2593L21.1666 25.9086L21.1282 8.72266L20.5215 9.07338Z" fill="#D7D7D7"/>
<path d="M19.2897 9.76668L19.0049 9.60156L19.0433 26.7875L19.3274 26.9526L19.2897 9.76668Z" fill="#E8E8E8"/>
<path d="M19.8964 9.41512L19.6122 9.25L19.0049 9.60008L19.2897 9.7652L19.8964 9.41512Z" fill="#F1F1F1"/>
<path d="M19.29 9.76414L19.3278 26.9501L19.9352 26.6L19.8968 9.41406L19.29 9.76414Z" fill="#D7D7D7"/>
<path d="M9.64844 3.50595L10.3537 3.91363L14.2494 1.64995V0.832031L9.64844 3.50595Z" fill="#B9B9BA"/>
<path d="M14.249 0.832031V1.64995L22.2817 6.28739L22.9869 5.87715L14.249 0.832031Z" fill="#808081"/>
<path d="M9.3749 4.60547L9.36914 6.54275L10.7874 7.36131L10.7931 5.42403L9.3749 4.60547Z" fill="#646565"/>
<path d="M9.3688 6.54133L9.37456 4.60405L9.16656 4.48438L9.16016 6.68469L9.3688 6.54133Z" fill="#B9B9BA"/>
<path d="M9.3688 6.54297L9.16016 6.68633L10.7864 7.62521L10.787 7.36153L9.3688 6.54297Z" fill="#F1F1F1"/>
<path d="M11.7196 5.95703L11.7139 7.89431L13.1321 8.71351L13.1379 6.77559L11.7196 5.95703Z" fill="#646565"/>
<path d="M11.7139 7.8968L11.7196 5.95952L11.5116 5.83984L11.5059 8.04016L11.7139 7.8968Z" fill="#B9B9BA"/>
<path d="M11.7139 7.89453L11.5059 8.03789L13.1315 8.97677L13.1321 8.71373L11.7139 7.89453Z" fill="#F1F1F1"/>
<path d="M14.0653 7.3125L14.0596 9.25042L15.4778 10.069L15.4836 8.1317L14.0653 7.3125Z" fill="#646565"/>
<path d="M14.0596 9.24901L14.0653 7.31109L13.8573 7.19141L13.8516 9.39237L14.0596 9.24901Z" fill="#B9B9BA"/>
<path d="M14.0596 9.25L13.8516 9.39336L15.4772 10.3316L15.4778 10.0686L14.0596 9.25Z" fill="#F1F1F1"/>
<path d="M16.4091 8.66797L16.4033 10.6052L17.8216 11.4238L17.8273 9.48653L16.4091 8.66797Z" fill="#646565"/>
<path d="M16.4033 10.6045L16.4091 8.66719L16.2017 8.54688L16.1953 10.7478L16.4033 10.6045Z" fill="#B9B9BA"/>
<path d="M16.4033 10.6055L16.1953 10.7488L17.8209 11.6877L17.8216 11.424L16.4033 10.6055Z" fill="#F1F1F1"/>
<path d="M9.3749 7.43359L9.36914 9.37087L10.7874 10.1894L10.7931 8.25215L9.3749 7.43359Z" fill="#646565"/>
<path d="M9.3688 9.3701L9.37456 7.43282L9.16656 7.3125L9.16016 9.51346L9.3688 9.3701Z" fill="#B9B9BA"/>
<path d="M9.3688 9.37109L9.16016 9.51445L10.7864 10.4533L10.787 10.1897L9.3688 9.37109Z" fill="#F1F1F1"/>
<path d="M11.7196 8.78516L11.7139 10.7224L13.1321 11.541L13.1379 9.60372L11.7196 8.78516Z" fill="#646565"/>
<path d="M11.7139 10.7249L11.7196 8.78765L11.5116 8.66797L11.5059 10.8683L11.7139 10.7249Z" fill="#B9B9BA"/>
<path d="M11.7139 10.7227L11.5059 10.866L13.1315 11.8049L13.1321 11.5412L11.7139 10.7227Z" fill="#F1F1F1"/>
<path d="M14.0644 10.1406L14.0586 12.0779L15.4768 12.8965L15.4826 10.9592L14.0644 10.1406Z" fill="#646565"/>
<path d="M14.0586 12.0765L14.0643 10.1392L13.8563 10.0195L13.8506 12.2199L14.0586 12.0765Z" fill="#B9B9BA"/>
<path d="M14.0586 12.0781L13.8506 12.2215L15.4762 13.1604L15.4768 12.8967L14.0586 12.0781Z" fill="#F1F1F1"/>
<path d="M16.4091 11.4961L16.4033 13.434L17.8216 14.2526L17.8273 12.3147L16.4091 11.4961Z" fill="#646565"/>
<path d="M16.4033 13.4326L16.4091 11.4947L16.2017 11.375L16.1953 13.576L16.4033 13.4326Z" fill="#B9B9BA"/>
<path d="M16.4033 13.4336L16.1953 13.577L17.8209 14.5152L17.8216 14.2522L16.4033 13.4336Z" fill="#F1F1F1"/>
<path d="M9.3749 10.2617L9.36914 12.1996L10.7874 13.0182L10.7931 11.0803L9.3749 10.2617Z" fill="#646565"/>
<path d="M9.3688 12.1982L9.37456 10.2603L9.16656 10.1406L9.16016 12.3416L9.3688 12.1982Z" fill="#B9B9BA"/>
<path d="M9.3688 12.1992L9.16016 12.3426L10.7864 13.2808L10.787 13.0178L9.3688 12.1992Z" fill="#F1F1F1"/>
<path d="M11.7196 11.6133L11.7139 13.5506L13.1321 14.3691L13.1379 12.4318L11.7196 11.6133Z" fill="#646565"/>
<path d="M11.7139 13.5537L11.7196 11.6164L11.5116 11.4961L11.5059 13.6971L11.7139 13.5537Z" fill="#B9B9BA"/>
<path d="M11.7139 13.5508L11.5059 13.6941L13.1315 14.633L13.1321 14.3693L11.7139 13.5508Z" fill="#F1F1F1"/>
<path d="M14.0644 12.9688L14.0586 14.906L15.4768 15.7246L15.4826 13.7873L14.0644 12.9688Z" fill="#646565"/>
<path d="M14.0586 14.9046L14.0643 12.9673L13.8563 12.8477L13.8506 15.048L14.0586 14.9046Z" fill="#B9B9BA"/>
<path d="M14.0586 14.9062L13.8506 15.0496L15.4762 15.9885L15.4768 15.7248L14.0586 14.9062Z" fill="#F1F1F1"/>
<path d="M16.4091 14.3242L16.4033 16.2615L17.8216 17.0801L17.8273 15.1428L16.4091 14.3242Z" fill="#646565"/>
<path d="M16.4033 16.2601L16.4091 14.3228L16.2017 14.2031L16.1953 16.4034L16.4033 16.2601Z" fill="#B9B9BA"/>
<path d="M16.4033 16.2617L16.1953 16.4051L17.8209 17.344L17.8216 17.0803L16.4033 16.2617Z" fill="#F1F1F1"/>
<path d="M9.3749 13.0859L9.36914 15.0232L10.7874 15.8418L10.7931 13.9045L9.3749 13.0859Z" fill="#646565"/>
<path d="M9.3688 15.0218L9.37456 13.0845L9.16656 12.9648L9.16016 15.1652L9.3688 15.0218Z" fill="#B9B9BA"/>
<path d="M9.3688 15.0234L9.16016 15.1668L10.7864 16.1057L10.787 15.842L9.3688 15.0234Z" fill="#F1F1F1"/>
<path d="M11.7196 14.4375L11.7139 16.3754L13.1321 17.194L13.1379 15.2561L11.7196 14.4375Z" fill="#646565"/>
<path d="M11.7139 16.3779L11.7196 14.44L11.5116 14.3203L11.5059 16.5213L11.7139 16.3779Z" fill="#B9B9BA"/>
<path d="M11.7139 16.375L11.5059 16.5184L13.1315 17.4566L13.1321 17.1936L11.7139 16.375Z" fill="#F1F1F1"/>
<path d="M14.0644 15.793L14.0586 17.7302L15.4768 18.5488L15.4826 16.6115L14.0644 15.793Z" fill="#646565"/>
<path d="M14.0586 17.7295L14.0643 15.7922L13.8563 15.6719L13.8506 17.8728L14.0586 17.7295Z" fill="#B9B9BA"/>
<path d="M14.0586 17.7305L13.8506 17.8738L15.4762 18.8127L15.4768 18.549L14.0586 17.7305Z" fill="#F1F1F1"/>
<path d="M16.4091 17.1484L16.4033 19.0857L17.8216 19.9043L17.8273 17.967L16.4091 17.1484Z" fill="#646565"/>
<path d="M16.4033 19.0849L16.4091 17.1477L16.2017 17.0273L16.1953 19.2283L16.4033 19.0849Z" fill="#B9B9BA"/>
<path d="M16.4033 19.0859L16.1953 19.2293L17.8209 20.1682L17.8216 19.9045L16.4033 19.0859Z" fill="#F1F1F1"/>
<path d="M11.604 19.2422L11.5938 24.382L14.2946 25.9411L14.3048 20.8012L11.604 19.2422Z" fill="#646565"/>
<path d="M11.5941 24.38L11.6043 19.2402L11.2094 19.0117L11.1973 24.6527L11.5941 24.38Z" fill="#B9B9BA"/>
<path d="M11.5941 24.3789L11.1973 24.6515L14.2936 26.4397L14.2949 25.9379L11.5941 24.3789Z" fill="#F1F1F1"/>
</svg>
