<svg width="20" height="20" viewBox="0 0 20 20" fill="none" xmlns="http://www.w3.org/2000/svg">
<path d="M0.833008 18.334H19.1663" stroke="white" stroke-miterlimit="10" stroke-linecap="round" stroke-linejoin="round"/>
<path d="M16.4834 18.3417V14.625" stroke="white" stroke-miterlimit="10" stroke-linecap="round" stroke-linejoin="round"/>
<path d="M16.5003 9.07422C15.4837 9.07422 14.667 9.8909 14.667 10.9076V12.7992C14.667 13.8159 15.4837 14.6325 16.5003 14.6325C17.517 14.6325 18.3337 13.8159 18.3337 12.7992V10.9076C18.3337 9.8909 17.517 9.07422 16.5003 9.07422Z" stroke="white" stroke-miterlimit="10" stroke-linecap="round" stroke-linejoin="round"/>
<path d="M1.75 18.3328V5.0245C1.75 3.3495 2.58338 2.50781 4.24171 2.50781H9.43336C11.0917 2.50781 11.9167 3.3495 11.9167 5.0245V18.3328" stroke="white" stroke-miterlimit="10" stroke-linecap="round" stroke-linejoin="round"/>
<path d="M4.83301 6.875H8.95802" stroke="white" stroke-miterlimit="10" stroke-linecap="round" stroke-linejoin="round"/>
<path d="M4.83301 10H8.95802" stroke="white" stroke-miterlimit="10" stroke-linecap="round" stroke-linejoin="round"/>
<path d="M6.875 18.334V15.209" stroke="white" stroke-miterlimit="10" stroke-linecap="round" stroke-linejoin="round"/>
</svg>
