<svg width="16" height="16" viewBox="0 0 16 16" fill="none" xmlns="http://www.w3.org/2000/svg">
<path d="M5.33398 3.83203C5.06065 3.83203 4.83398 3.60536 4.83398 3.33203V1.33203C4.83398 1.0587 5.06065 0.832031 5.33398 0.832031C5.60732 0.832031 5.83398 1.0587 5.83398 1.33203V3.33203C5.83398 3.60536 5.60732 3.83203 5.33398 3.83203Z" fill="#606060"/>
<path d="M10.666 3.83203C10.3927 3.83203 10.166 3.60536 10.166 3.33203V1.33203C10.166 1.0587 10.3927 0.832031 10.666 0.832031C10.9393 0.832031 11.166 1.0587 11.166 1.33203V3.33203C11.166 3.60536 10.9393 3.83203 10.666 3.83203Z" fill="#606060"/>
<path d="M5.66667 9.66753C5.58 9.66753 5.49333 9.64753 5.41333 9.6142C5.32667 9.58087 5.26 9.53419 5.19333 9.47419C5.07333 9.34752 5 9.18086 5 9.00086C5 8.91419 5.02 8.82752 5.05333 8.74752C5.08667 8.66752 5.13333 8.5942 5.19333 8.52753C5.26 8.46753 5.32667 8.42085 5.41333 8.38752C5.65333 8.28752 5.95333 8.34086 6.14 8.52753C6.26 8.6542 6.33333 8.82753 6.33333 9.00086C6.33333 9.04086 6.32667 9.08753 6.32 9.1342C6.31333 9.1742 6.3 9.2142 6.28 9.2542C6.26667 9.2942 6.24667 9.33419 6.22 9.37419C6.2 9.40752 6.16667 9.44085 6.14 9.47419C6.01333 9.59419 5.84 9.66753 5.66667 9.66753Z" fill="#606060"/>
<path d="M8.00065 9.66658C7.91398 9.66658 7.82732 9.64659 7.74732 9.61326C7.66065 9.57992 7.59398 9.53324 7.52732 9.47324C7.40732 9.34658 7.33398 9.17992 7.33398 8.99992C7.33398 8.91325 7.35399 8.82658 7.38732 8.74658C7.42065 8.66658 7.46732 8.59325 7.52732 8.52659C7.59398 8.46659 7.66065 8.41991 7.74732 8.38657C7.98732 8.27991 8.28732 8.33992 8.47398 8.52659C8.59398 8.65325 8.66732 8.82658 8.66732 8.99992C8.66732 9.03992 8.66065 9.08659 8.65398 9.13326C8.64732 9.17326 8.63398 9.21325 8.61398 9.25325C8.60065 9.29325 8.58065 9.33325 8.55399 9.37325C8.53399 9.40658 8.50065 9.43991 8.47398 9.47324C8.34732 9.59324 8.17398 9.66658 8.00065 9.66658Z" fill="#606060"/>
<path d="M10.3327 9.66658C10.246 9.66658 10.1593 9.64659 10.0793 9.61326C9.99268 9.57992 9.92602 9.53324 9.85935 9.47324C9.83268 9.43991 9.80601 9.40658 9.77935 9.37325C9.75268 9.33325 9.73268 9.29325 9.71935 9.25325C9.69935 9.21325 9.68602 9.17326 9.67935 9.13326C9.67268 9.08659 9.66602 9.03992 9.66602 8.99992C9.66602 8.82658 9.73935 8.65325 9.85935 8.52659C9.92602 8.46659 9.99268 8.41991 10.0793 8.38657C10.326 8.27991 10.6193 8.33992 10.806 8.52659C10.926 8.65325 10.9993 8.82658 10.9993 8.99992C10.9993 9.03992 10.9927 9.08659 10.986 9.13326C10.9793 9.17326 10.966 9.21325 10.946 9.25325C10.9327 9.29325 10.9127 9.33325 10.886 9.37325C10.866 9.40658 10.8327 9.43991 10.806 9.47324C10.6793 9.59324 10.506 9.66658 10.3327 9.66658Z" fill="#606060"/>
<path d="M5.66667 12.0008C5.58 12.0008 5.49333 11.9808 5.41333 11.9475C5.33333 11.9141 5.26 11.8674 5.19333 11.8074C5.07333 11.6808 5 11.5074 5 11.3341C5 11.2474 5.02 11.1608 5.05333 11.0808C5.08667 10.9941 5.13333 10.9208 5.19333 10.8608C5.44 10.6141 5.89333 10.6141 6.14 10.8608C6.26 10.9874 6.33333 11.1608 6.33333 11.3341C6.33333 11.5074 6.26 11.6808 6.14 11.8074C6.01333 11.9274 5.84 12.0008 5.66667 12.0008Z" fill="#606060"/>
<path d="M8.00065 12.0008C7.82732 12.0008 7.65398 11.9274 7.52732 11.8074C7.40732 11.6808 7.33398 11.5074 7.33398 11.3341C7.33398 11.2474 7.35399 11.1608 7.38732 11.0808C7.42065 10.9941 7.46732 10.9208 7.52732 10.8608C7.77398 10.6141 8.22732 10.6141 8.47398 10.8608C8.53398 10.9208 8.58065 10.9941 8.61398 11.0808C8.64732 11.1608 8.66732 11.2474 8.66732 11.3341C8.66732 11.5074 8.59398 11.6808 8.47398 11.8074C8.34732 11.9274 8.17398 12.0008 8.00065 12.0008Z" fill="#606060"/>
<path d="M10.3327 11.9999C10.1593 11.9999 9.98602 11.9266 9.85935 11.8066C9.79935 11.7466 9.75268 11.6733 9.71935 11.5866C9.68602 11.5066 9.66602 11.4199 9.66602 11.3333C9.66602 11.2466 9.68602 11.1599 9.71935 11.0799C9.75268 10.9933 9.79935 10.9199 9.85935 10.8599C10.0127 10.7066 10.246 10.6333 10.4593 10.6799C10.506 10.6866 10.546 10.6999 10.586 10.7199C10.626 10.7333 10.666 10.7533 10.706 10.78C10.7394 10.8 10.7727 10.8333 10.806 10.8599C10.926 10.9866 10.9993 11.1599 10.9993 11.3333C10.9993 11.5066 10.926 11.6799 10.806 11.8066C10.6793 11.9266 10.506 11.9999 10.3327 11.9999Z" fill="#606060"/>
<path d="M13.6673 6.55859H2.33398C2.06065 6.55859 1.83398 6.33193 1.83398 6.05859C1.83398 5.78526 2.06065 5.55859 2.33398 5.55859H13.6673C13.9407 5.55859 14.1673 5.78526 14.1673 6.05859C14.1673 6.33193 13.9407 6.55859 13.6673 6.55859Z" fill="#606060"/>
<path d="M10.6667 15.1654H5.33333C2.9 15.1654 1.5 13.7654 1.5 11.332V5.66537C1.5 3.23203 2.9 1.83203 5.33333 1.83203H10.6667C13.1 1.83203 14.5 3.23203 14.5 5.66537V11.332C14.5 13.7654 13.1 15.1654 10.6667 15.1654ZM5.33333 2.83203C3.42667 2.83203 2.5 3.7587 2.5 5.66537V11.332C2.5 13.2387 3.42667 14.1654 5.33333 14.1654H10.6667C12.5733 14.1654 13.5 13.2387 13.5 11.332V5.66537C13.5 3.7587 12.5733 2.83203 10.6667 2.83203H5.33333Z" fill="#606060"/>
</svg>
