<svg width="16" height="16" viewBox="0 0 16 16" fill="none" xmlns="http://www.w3.org/2000/svg">
<path opacity="0.4" d="M7.99967 14.6673C11.6816 14.6673 14.6663 11.6825 14.6663 8.00065C14.6663 4.31875 11.6816 1.33398 7.99967 1.33398C4.31778 1.33398 1.33301 4.31875 1.33301 8.00065C1.33301 11.6825 4.31778 14.6673 7.99967 14.6673Z" fill="#DE940B"/>
<path d="M10.4731 10.6192C10.3864 10.6192 10.2998 10.5992 10.2198 10.5459L8.1531 9.31253C7.63977 9.00586 7.25977 8.33253 7.25977 7.73919V5.00586C7.25977 4.73253 7.48643 4.50586 7.75977 4.50586C8.0331 4.50586 8.25977 4.73253 8.25977 5.00586V7.73919C8.25977 7.97919 8.45977 8.33253 8.66643 8.45253L10.7331 9.68586C10.9731 9.82586 11.0464 10.1325 10.9064 10.3725C10.8064 10.5325 10.6398 10.6192 10.4731 10.6192Z" fill="#DE940B"/>
</svg>
