<svg width="24" height="24" viewBox="0 0 24 24" fill="none" xmlns="http://www.w3.org/2000/svg">
<path d="M15 22.75H9C3.57 22.75 1.25 20.43 1.25 15V9C1.25 3.57 3.57 1.25 9 1.25H11C11.41 1.25 11.75 1.59 11.75 2C11.75 2.41 11.41 2.75 11 2.75H9C4.39 2.75 2.75 4.39 2.75 9V15C2.75 19.61 4.39 21.25 9 21.25H15C19.61 21.25 21.25 19.61 21.25 15V13C21.25 12.59 21.59 12.25 22 12.25C22.41 12.25 22.75 12.59 22.75 13V15C22.75 20.43 20.43 22.75 15 22.75Z" fill="#00644C"/>
<path d="M8.50032 17.6886C7.89032 17.6886 7.33032 17.4686 6.92032 17.0686C6.43032 16.5786 6.22032 15.8686 6.33032 15.1186L6.76032 12.1086C6.84032 11.5286 7.22032 10.7786 7.63032 10.3686L15.5103 2.48859C17.5003 0.498594 19.5203 0.498594 21.5103 2.48859C22.6003 3.57859 23.0903 4.68859 22.9903 5.79859C22.9003 6.69859 22.4203 7.57859 21.5103 8.47859L13.6303 16.3586C13.2203 16.7686 12.4703 17.1486 11.8903 17.2286L8.88032 17.6586C8.75032 17.6886 8.62032 17.6886 8.50032 17.6886ZM16.5703 3.54859L8.69032 11.4286C8.50032 11.6186 8.28032 12.0586 8.24032 12.3186L7.81032 15.3286C7.77032 15.6186 7.83032 15.8586 7.98032 16.0086C8.13032 16.1586 8.37032 16.2186 8.66032 16.1786L11.6703 15.7486C11.9303 15.7086 12.3803 15.4886 12.5603 15.2986L20.4403 7.41859C21.0903 6.76859 21.4303 6.18859 21.4803 5.64859C21.5403 4.99859 21.2003 4.30859 20.4403 3.53859C18.8403 1.93859 17.7403 2.38859 16.5703 3.54859Z" fill="#00644C"/>
<path d="M19.8496 9.83027C19.7796 9.83027 19.7096 9.82027 19.6496 9.80027C17.0196 9.06027 14.9296 6.97027 14.1896 4.34027C14.0796 3.94027 14.3096 3.53027 14.7096 3.41027C15.1096 3.30027 15.5196 3.53027 15.6296 3.93027C16.2296 6.06027 17.9196 7.75027 20.0496 8.35027C20.4496 8.46027 20.6796 8.88027 20.5696 9.28027C20.4796 9.62027 20.1796 9.83027 19.8496 9.83027Z" fill="#00644C"/>
</svg>
