<svg width="20" height="20" viewBox="0 0 20 20" fill="none" xmlns="http://www.w3.org/2000/svg">
<path d="M12.5003 18.9577H7.50033C2.97533 18.9577 1.04199 17.0243 1.04199 12.4993V7.49935C1.04199 2.97435 2.97533 1.04102 7.50033 1.04102H12.5003C17.0253 1.04102 18.9587 2.97435 18.9587 7.49935V12.4993C18.9587 17.0243 17.0253 18.9577 12.5003 18.9577ZM7.50033 2.29102C3.65866 2.29102 2.29199 3.65768 2.29199 7.49935V12.4993C2.29199 16.341 3.65866 17.7077 7.50033 17.7077H12.5003C16.342 17.7077 17.7087 16.341 17.7087 12.4993V7.49935C17.7087 3.65768 16.342 2.29102 12.5003 2.29102H7.50033Z" fill="white"/>
<path d="M8.33301 18.9577C7.99134 18.9577 7.70801 18.6744 7.70801 18.3327V1.66602C7.70801 1.32435 7.99134 1.04102 8.33301 1.04102C8.67467 1.04102 8.95801 1.32435 8.95801 1.66602V18.3327C8.95801 18.6744 8.67467 18.9577 8.33301 18.9577Z" fill="white"/>
<path d="M18.333 10.625H8.33301C7.99134 10.625 7.70801 10.3417 7.70801 10C7.70801 9.65833 7.99134 9.375 8.33301 9.375H18.333C18.6747 9.375 18.958 9.65833 18.958 10C18.958 10.3417 18.6747 10.625 18.333 10.625Z" fill="white"/>
</svg>
