<svg width="28" height="24" viewBox="0 0 28 24" fill="none" xmlns="http://www.w3.org/2000/svg">
<path fill-rule="evenodd" clip-rule="evenodd" d="M2.46777 12.8069V16.1251C2.4822 16.3487 2.51827 16.392 2.51827 16.6589C2.51827 17.4524 2.51827 18.2458 2.59762 18.9167C2.8068 20.5108 3.00878 21.8381 4.45868 22.9129C5.7066 23.8362 7.73358 23.9372 9.29889 23.93C9.7317 23.93 9.97695 23.9805 10.4242 23.9805C13.1653 23.9805 17.8324 24.0671 20.2777 23.829C21.1578 23.7425 22.2181 23.4323 22.9034 22.9418C24.815 21.5568 24.8871 19.0105 24.8727 16.7094C24.8727 16.3271 24.9232 16.0241 24.9232 15.5841C24.9232 13.9178 25.0025 10.275 24.6491 8.97657C24.0864 6.93517 22.1388 5.91809 20.3571 4.82164L18.6114 3.73241C17.7458 3.22026 16.8658 2.61434 15.9425 2.15268C15.6323 1.99398 15.3149 1.85693 14.947 1.7343C14.168 1.47461 13.3745 1.45297 12.5738 1.70544C11.4918 2.04447 10.7199 2.5422 9.75334 3.12648C9.4648 3.29961 9.18348 3.48716 8.88051 3.66749C8.57033 3.85504 8.31786 4.02816 8.00769 4.2085C7.40176 4.56917 6.86075 4.92985 6.26204 5.29773C5.65611 5.66562 5.15117 5.99743 4.59574 6.41581C3.97538 6.87747 3.64356 7.2165 3.21797 7.86571C2.77795 8.54377 2.51827 9.78448 2.52548 10.6862L2.47499 12.7853L2.46777 12.8069ZM11.8597 9.27233C11.8597 8.05326 13.7496 6.91354 14.9975 8.16867C15.8631 9.03429 15.6323 10.513 14.6873 11.0108C14.6873 11.7033 14.6873 12.403 14.6873 13.0954C14.6873 14.2929 13.461 14.4516 12.9345 13.8529C12.7469 13.6365 12.6964 13.4345 12.6964 13.0449C12.6964 12.3669 12.6964 11.6888 12.6964 11.0108C12.04 10.6645 11.8524 10.037 11.8524 9.27233H11.8597ZM7.85621 16.2333C7.85621 15.6923 8.45492 15.209 9.02478 15.209C9.83269 15.209 10.9436 16.7382 13.3312 16.7382C17.0245 16.7382 17.3202 15.209 18.3662 15.209C19.0298 15.209 19.5347 15.6779 19.5347 16.4497C19.5347 17.4091 18.0127 18.0727 17.2553 18.3973C14.4132 19.6164 11.2826 19.3423 8.72182 17.6327C8.06539 17.1927 7.86342 17.0845 7.86342 16.2333H7.85621Z" fill="#D89E33"/>
<path fill-rule="evenodd" clip-rule="evenodd" d="M13.6845 -0.00390625L0.801325 8.08235C0.217037 8.45024 -0.0137931 8.37088 0.000633751 9.02009V9.83521H3.47751L3.61456 8.34925L13.7134 2.6867L24.1079 8.76763L24.144 9.84242H27.4044V9.18601C27.4044 8.61615 27.2313 8.61615 26.8129 8.36368L13.6773 0.00330322L13.6845 -0.00390625Z" fill="#D89E33"/>
<path d="M23.8124 4.08594H23.1199C22.5861 4.08594 22.1533 4.5187 22.1533 5.05253V6.8054C22.1533 7.33924 22.5861 7.772 23.1199 7.772H23.8124C24.3462 7.772 24.779 7.33924 24.779 6.8054V5.05253C24.779 4.5187 24.3462 4.08594 23.8124 4.08594Z" fill="#D89E33"/>
</svg>
