<svg width="131" height="24" viewBox="0 0 131 24" fill="none" xmlns="http://www.w3.org/2000/svg">
<path fill-rule="evenodd" clip-rule="evenodd" d="M51.0207 15.8004H46.2526C45.2067 17.4234 43.9948 18.1231 42.2491 18.1231C39.3277 18.1231 37.1348 15.8364 37.1348 12.7491C37.1348 9.66175 39.2339 7.44001 42.1554 7.44001C44.0597 7.44001 45.3942 8.2335 46.2526 9.85652H51.0207C49.6573 5.817 46.1588 3.56641 42.1554 3.56641C36.9401 3.56641 32.8789 7.60593 32.8789 12.7852C32.8789 17.9644 37.0771 22.0039 42.2852 22.0039C46.3824 22.0039 49.5636 19.7461 51.0279 15.8076L51.0207 15.8004Z" fill="white"/>
<path fill-rule="evenodd" clip-rule="evenodd" d="M70.1007 21.8741V10.7726C69.3866 5.65109 65.1018 3.56641 60.4708 3.56641C55.2555 3.56641 51.5117 7.47609 51.5117 12.8429C51.5117 18.2097 55.2266 21.9967 60.377 21.9967C62.8584 21.9967 64.5392 21.2032 66.2271 19.2989V21.8741H70.1079H70.1007ZM66.0973 12.9078C66.0973 15.8292 64.1929 18.1231 60.9829 18.1231C57.773 18.1231 55.7676 16.024 55.7676 12.9439C55.7676 9.86373 57.8956 7.44723 60.918 7.44723C63.9405 7.44723 66.0973 9.70504 66.0973 12.915V12.9078Z" fill="white"/>
<path fill-rule="evenodd" clip-rule="evenodd" d="M88.8625 13.0376C88.8625 7.56986 85.0177 3.56641 79.7735 3.56641C74.5294 3.56641 70.4971 7.66363 70.4971 12.8429C70.4971 18.0221 74.6592 21.9967 80.0332 21.9967C83.5894 21.9967 87.2467 19.9914 88.4224 16.3702H83.8131C82.7311 17.6398 81.6851 18.1159 79.9394 18.1159C77.4292 18.1159 75.5825 16.7814 75.0776 14.6534H88.711C88.8408 14.0475 88.8697 13.6652 88.8697 13.0304L88.8625 13.0376ZM84.7003 10.9385H74.9405C75.6114 8.68073 77.321 7.44001 79.8312 7.44001C82.3415 7.44001 84.1521 8.68073 84.6931 10.9385H84.7003Z" fill="white"/>
<path fill-rule="evenodd" clip-rule="evenodd" d="M115.488 21.9388V3.62395H111.261V12.2729C111.261 14.6244 111.08 15.7137 110.59 16.4999C109.962 17.5242 108.808 18.1229 107.38 18.1229C105.346 18.1229 104.04 17.2645 104.04 12.5902V3.55181C100.578 3.55181 89.3174 3.15507 89.3174 7.67789V21.8667H93.5445V12.0781C93.5445 8.11791 96.9636 7.72118 99.4667 7.64183C99.5821 7.64183 101.818 5.46337 101.926 5.46337C101.378 6.3939 99.8129 7.96642 99.8129 9.06287V13.4198C99.8129 19.6161 102.417 22.0038 106.521 22.0038C108.649 22.0038 109.984 21.4628 111.578 19.9047V21.9461H115.488V21.9388Z" fill="white"/>
<path fill-rule="evenodd" clip-rule="evenodd" d="M130.037 15.9957C130.037 13.3917 128.717 11.9923 124.699 10.8453C121.547 9.92203 121.439 9.85711 121.439 8.941C121.439 8.0826 122.203 7.44783 123.206 7.44783C124.209 7.44783 124.8 7.92391 125.009 8.84723H129.518C129.345 5.54348 126.466 3.57422 123.206 3.57422C119.635 3.57422 116.829 5.92579 116.829 8.94822C116.829 11.5234 118.358 12.9877 122.167 14.1563C125.254 15.1085 125.428 15.397 125.428 16.4141C125.428 17.4312 124.526 18.1309 123.35 18.1309C122.001 18.1309 121.237 17.4961 120.782 16.003H116.137C116.62 20.1002 119.361 22.0117 123.17 22.0117C126.979 22.0117 130.037 19.3716 130.037 16.003V15.9957Z" fill="white"/>
<path fill-rule="evenodd" clip-rule="evenodd" d="M2.46777 12.8069V16.1251C2.4822 16.3487 2.51827 16.392 2.51827 16.6589C2.51827 17.4524 2.51827 18.2458 2.59762 18.9167C2.8068 20.5108 3.00878 21.8381 4.45868 22.9129C5.7066 23.8362 7.73358 23.9372 9.29889 23.93C9.7317 23.93 9.97695 23.9805 10.4242 23.9805C13.1653 23.9805 17.8324 24.0671 20.2777 23.829C21.1578 23.7425 22.2181 23.4323 22.9034 22.9418C24.815 21.5568 24.8871 19.0105 24.8727 16.7094C24.8727 16.3271 24.9232 16.0241 24.9232 15.5841C24.9232 13.9178 25.0025 10.275 24.6491 8.97657C24.0864 6.93517 22.1388 5.91809 20.3571 4.82164L18.6114 3.73241C17.7458 3.22026 16.8658 2.61434 15.9425 2.15268C15.6323 1.99398 15.3149 1.85693 14.947 1.7343C14.168 1.47461 13.3745 1.45297 12.5738 1.70544C11.4918 2.04447 10.7199 2.5422 9.75334 3.12648C9.4648 3.29961 9.18348 3.48716 8.88051 3.66749C8.57033 3.85504 8.31786 4.02816 8.00769 4.2085C7.40176 4.56917 6.86075 4.92985 6.26204 5.29773C5.65611 5.66562 5.15117 5.99743 4.59574 6.41581C3.97538 6.87747 3.64356 7.2165 3.21797 7.86571C2.77795 8.54377 2.51827 9.78448 2.52548 10.6862L2.47499 12.7853L2.46777 12.8069ZM11.8597 9.27233C11.8597 8.05326 13.7496 6.91354 14.9975 8.16867C15.8631 9.03429 15.6323 10.513 14.6873 11.0108C14.6873 11.7033 14.6873 12.403 14.6873 13.0954C14.6873 14.2929 13.461 14.4516 12.9345 13.8529C12.7469 13.6365 12.6964 13.4345 12.6964 13.0449C12.6964 12.3669 12.6964 11.6888 12.6964 11.0108C12.04 10.6645 11.8524 10.037 11.8524 9.27233H11.8597ZM7.85621 16.2333C7.85621 15.6923 8.45492 15.209 9.02478 15.209C9.83269 15.209 10.9436 16.7382 13.3312 16.7382C17.0245 16.7382 17.3202 15.209 18.3662 15.209C19.0298 15.209 19.5347 15.6779 19.5347 16.4497C19.5347 17.4091 18.0127 18.0727 17.2553 18.3973C14.4132 19.6164 11.2826 19.3423 8.72182 17.6327C8.06539 17.1927 7.86342 17.0845 7.86342 16.2333H7.85621Z" fill="#D89E33"/>
<path fill-rule="evenodd" clip-rule="evenodd" d="M13.6845 -0.00390625L0.801325 8.08235C0.217037 8.45024 -0.0137931 8.37088 0.000633751 9.02009V9.83521H3.47751L3.61456 8.34925L13.7134 2.6867L24.1079 8.76763L24.144 9.84242H27.4044V9.18601C27.4044 8.61615 27.2313 8.61615 26.8129 8.36368L13.6773 0.00330322L13.6845 -0.00390625Z" fill="#D89E33"/>
<path d="M23.8124 4.08594H23.1199C22.5861 4.08594 22.1533 4.5187 22.1533 5.05253V6.8054C22.1533 7.33924 22.5861 7.772 23.1199 7.772H23.8124C24.3462 7.772 24.779 7.33924 24.779 6.8054V5.05253C24.779 4.5187 24.3462 4.08594 23.8124 4.08594Z" fill="#D89E33"/>
</svg>
