<svg width="25" height="24" viewBox="0 0 25 24" fill="none" xmlns="http://www.w3.org/2000/svg">
<path d="M7.36461 6.88236C8.67813 5.56432 10.4933 4.75 12.5 4.75C16.5041 4.75 19.75 7.99594 19.75 12C19.75 16.0041 16.5041 19.25 12.5 19.25C8.49594 19.25 5.25 16.0041 5.25 12C5.25 11.5858 4.91421 11.25 4.5 11.25C4.08579 11.25 3.75 11.5858 3.75 12C3.75 16.8325 7.66751 20.75 12.5 20.75C17.3325 20.75 21.25 16.8325 21.25 12C21.25 7.16751 17.3325 3.25 12.5 3.25C10.0785 3.25 7.88558 4.23462 6.30213 5.82352C6.27668 5.84906 6.25345 5.87597 6.23245 5.90401L4.97488 4.64645C4.83769 4.50926 4.63353 4.46382 4.45111 4.52986C4.26869 4.59591 4.14094 4.76152 4.12338 4.95473L3.76982 8.84382C3.75639 8.9916 3.80929 9.13771 3.91422 9.24264C4.01914 9.34757 4.16526 9.40047 4.31304 9.38703L8.20213 9.03348C8.39534 9.01591 8.56095 8.88817 8.62699 8.70575C8.69304 8.52332 8.6476 8.31916 8.51041 8.18198L7.2823 6.95386C7.31101 6.93235 7.33854 6.90852 7.36461 6.88236Z" fill="#00644C"/>
<path d="M13.25 7C13.25 6.58579 12.9142 6.25 12.5 6.25C12.0858 6.25 11.75 6.58579 11.75 7V12C11.75 12.2586 11.8832 12.4989 12.1025 12.636L15.1025 14.511C15.4538 14.7305 15.9165 14.6238 16.136 14.2725C16.3555 13.9212 16.2488 13.4585 15.8975 13.239L13.25 11.5843V7Z" fill="#00644C"/>
</svg>
