<svg width="32" height="32" viewBox="0 0 32 32" fill="none" xmlns="http://www.w3.org/2000/svg">
<path d="M7.61604 4.4801C7.04004 10.2401 11.264 14.4001 17.024 13.8881C17.536 8.1281 13.312 3.9681 7.61604 4.4801Z" fill="#ABDA32"/>
<path d="M7.61604 4.48047C7.04004 10.2405 11.264 14.4005 17.024 13.8885L7.61604 4.48047Z" fill="#61A01D"/>
<path d="M8.19197 22.7829C8.31997 22.6549 8.44797 22.5909 8.63997 22.5909C8.83197 22.5269 9.02397 22.5909 9.27997 22.5909L8.38397 23.4229C8.19197 23.2949 8.06397 23.1669 8.06397 23.1029C7.99997 22.9749 8.06397 22.9109 8.19197 22.7829ZM8.06397 24.2549C8.25597 24.3829 8.38397 24.5109 8.44797 24.6389C8.44797 24.7669 8.44797 24.8309 8.31997 24.9589C8.19197 25.0869 8.06397 25.1509 7.80797 25.1509C7.61597 25.1509 7.35997 25.1509 7.16797 25.0869L8.06397 24.2549Z" fill="#E2B647"/>
<path d="M9.47264 24.3827C9.53664 24.6387 9.47264 24.8307 9.15264 25.1507C8.83264 25.4067 8.44864 25.5987 8.00064 25.6627C7.55264 25.7267 7.04064 25.7267 6.59264 25.5987L6.20864 25.9187L5.76064 25.7907L6.14464 25.4707C5.56864 25.2147 5.18464 24.8947 5.05664 24.3827L6.01664 24.1267C6.14464 24.5107 6.40064 24.7667 6.72064 24.8947L7.74464 23.9987C7.36064 23.7427 7.10464 23.4867 6.97664 23.2947C6.91264 23.1027 6.97664 22.8467 7.29664 22.5907C7.61664 22.3347 8.00064 22.1427 8.44864 22.0787C8.89664 22.0147 9.34464 22.0147 9.85664 22.1427L10.1126 21.8867L10.5606 22.0147L10.2406 22.2067C10.6886 22.3987 11.0726 22.6547 11.2646 23.0387L10.3046 23.3587C10.1766 23.1027 9.92064 22.9107 9.66464 22.7827L8.70464 23.6787C9.15264 23.9347 9.40864 24.1267 9.47264 24.3827ZM7.74464 25.0867C7.93664 25.0867 8.12864 24.9587 8.25664 24.8947C8.38464 24.7667 8.44864 24.7027 8.38464 24.5747C8.38464 24.4467 8.25664 24.3827 8.00064 24.1907L7.04064 25.0227C7.36064 25.1507 7.55264 25.1507 7.74464 25.0867ZM8.38464 23.4227L9.28064 22.5907C9.08864 22.5267 8.83264 22.5267 8.64064 22.5907C8.44864 22.6547 8.32064 22.7187 8.19264 22.7827C8.06464 22.9107 8.00064 22.9747 8.06464 23.1027C8.06464 23.1667 8.19264 23.2947 8.38464 23.4227Z" fill="#F8D770"/>
<path d="M11.3282 20.9288C13.6322 21.6968 14.0802 23.6168 12.2882 25.2168C10.4962 26.8168 7.16815 27.5208 4.86415 26.7528C2.56015 25.9848 2.17615 24.0648 3.96815 22.4648C5.76015 20.8648 9.02415 20.1608 11.3282 20.9288ZM7.93615 25.6648C8.38415 25.6008 8.76815 25.4088 9.08815 25.1528C9.40815 24.8968 9.53615 24.6408 9.40815 24.3848C9.34415 24.1288 9.08815 23.9368 8.64015 23.6808L9.60015 22.7848C9.92015 22.9128 10.1122 23.1048 10.2402 23.3608L11.2002 23.0408C11.0082 22.6568 10.6242 22.4008 10.1762 22.2088L10.4322 21.9528L9.98415 21.8248L9.72815 22.0808C9.28015 21.9528 8.83215 21.9528 8.32015 22.0168C7.87215 22.0808 7.48815 22.2728 7.16815 22.5288C6.84815 22.7848 6.78415 23.0408 6.84815 23.2328C6.91215 23.4248 7.16815 23.6808 7.61615 23.9368L6.59215 24.8328C6.20815 24.6408 6.01615 24.3848 5.88815 24.0648L4.92815 24.3208C5.05615 24.7688 5.44015 25.1528 6.01615 25.4088L5.63215 25.7288L6.08015 25.8568L6.46415 25.5368C7.04015 25.7288 7.48815 25.7288 7.93615 25.6648Z" fill="#E2B647"/>
<path d="M15.0404 22.3984L15.6164 25.0864C15.8084 26.1104 15.3604 27.2624 14.2084 28.3504C11.8404 30.5264 7.36041 31.4224 4.28841 30.3984C2.75241 29.8864 1.85641 28.9904 1.60041 27.9664L1.02441 25.2784C1.21641 26.3024 2.17641 27.1984 3.71241 27.7104C6.78441 28.7344 11.2004 27.7744 13.6324 25.6624C14.7844 24.6384 15.2964 23.4224 15.0404 22.3984Z" fill="#E2B647"/>
<path d="M12.3523 19.9667C15.4243 20.9907 16.0003 23.5507 13.5683 25.6627C11.2003 27.8387 6.7203 28.7347 3.6483 27.7107C0.576299 26.6867 0.000299633 24.1267 2.4323 22.0147C4.8643 19.9027 9.2803 18.9427 12.3523 19.9667ZM4.8003 26.8147C7.1043 27.5827 10.4323 26.8787 12.2243 25.2787C14.0163 23.6787 13.5683 21.7587 11.2643 20.9907C8.9603 20.2227 5.6323 20.9267 3.8403 22.5267C2.0483 24.1267 2.4963 26.0467 4.8003 26.8147Z" fill="#F8D770"/>
<path d="M24.6402 23.3605C24.7682 23.2965 24.9602 23.2965 25.1522 23.3605C25.3442 23.4245 25.5362 23.4885 25.6642 23.6805L24.4482 24.0005C24.3202 23.8085 24.3202 23.6165 24.3202 23.5525C24.3842 23.4885 24.4482 23.3605 24.6402 23.3605ZM23.8722 24.5765C24.0002 24.8325 24.0642 24.9605 24.0002 25.0885C24.0002 25.2165 23.8722 25.2805 23.7442 25.2805C23.6162 25.3445 23.4242 25.3445 23.2322 25.2165C23.0402 25.1525 22.8483 25.0245 22.6562 24.8965L23.8722 24.5765Z" fill="#E2B647"/>
<path d="M25.0241 25.3437C25.0241 25.5997 24.7681 25.7277 24.3841 25.8557C24.0001 25.9837 23.5521 25.9197 23.1041 25.7917C22.6561 25.6637 22.2081 25.4077 21.8881 25.0877L21.3761 25.2157L21.0561 24.8957L21.5681 24.7677C21.1841 24.2557 20.9921 23.8077 21.0561 23.2957L22.0161 23.4877C21.9521 23.8717 22.0801 24.1917 22.2721 24.5117L23.6161 24.1277C23.3601 23.7437 23.2321 23.3597 23.2961 23.1677C23.2961 22.9117 23.5521 22.7837 23.9361 22.6557C24.3201 22.5277 24.7681 22.5917 25.2161 22.7197C25.6641 22.8477 26.0481 23.1037 26.4321 23.4237L26.7521 23.3597L27.0721 23.6797L26.7521 23.7437C27.0721 24.1277 27.2641 24.5117 27.2641 24.9597L26.3041 24.7677C26.3041 24.5117 26.1761 24.1917 25.9841 23.9357L24.7041 24.2557C24.9601 24.7677 25.0881 25.1517 25.0241 25.3437ZM23.1681 25.2157C23.3601 25.2797 23.5521 25.2797 23.6801 25.2797C23.8081 25.2157 23.9361 25.1517 23.9361 25.0877C23.9361 24.9597 23.9361 24.8317 23.8081 24.5757L22.5921 24.8957C22.7841 25.0877 22.9761 25.1517 23.1681 25.2157ZM24.5121 23.9997L25.7281 23.6797C25.5361 23.5517 25.4081 23.4237 25.2161 23.3597C25.0241 23.2957 24.8321 23.2957 24.7041 23.3597C24.5761 23.4237 24.4481 23.4877 24.4481 23.5517C24.3201 23.6157 24.3841 23.8077 24.5121 23.9997Z" fill="#F8D770"/>
<path d="M28.2247 23.1041C29.9527 24.8321 29.4407 26.7521 27.1367 27.3281C24.8327 27.9681 21.5047 27.0721 19.8407 25.3441C18.1127 23.6801 18.5607 21.7601 20.9287 21.1841C23.2327 20.5441 26.4967 21.4401 28.2247 23.1041ZM23.1047 25.8561C23.5527 25.9841 24.0007 25.9841 24.3847 25.9201C24.7687 25.7921 25.0247 25.6641 25.0247 25.4081C25.0247 25.1521 24.9607 24.8321 24.6407 24.4481L25.9207 24.1281C26.1127 24.3841 26.2407 24.7041 26.2407 24.9601L27.2007 25.1521C27.2007 24.7681 27.0087 24.3201 26.6887 23.9361L27.0087 23.8721L26.6887 23.5521L26.3687 23.6161C26.0487 23.2961 25.6007 23.0401 25.1527 22.9121C24.7047 22.7841 24.2567 22.7841 23.8727 22.8481C23.4887 22.9761 23.2967 23.1041 23.2327 23.3601C23.2327 23.6161 23.2967 23.9361 23.5527 24.3201L22.2087 24.7041C21.9527 24.3841 21.8887 24.0641 21.9527 23.6801L20.9927 23.4881C20.9287 24.0001 21.0567 24.4481 21.5047 24.9601L20.9927 25.0881L21.3127 25.4081L21.8247 25.2801C22.2727 25.4721 22.6567 25.6641 23.1047 25.8561Z" fill="#E2B647"/>
<path d="M30.9124 26.1744L30.2084 28.7984C29.9524 29.8224 28.9924 30.6544 27.4564 31.0384C24.3204 31.8704 19.9684 30.7184 17.6644 28.4144C16.5124 27.2624 16.1284 26.0464 16.3844 25.0224L17.0884 22.3984C16.8324 23.4224 17.2164 24.6384 18.3684 25.7904C20.6724 28.0944 25.0244 29.2464 28.1604 28.4144C29.6964 28.0304 30.6564 27.1984 30.9124 26.1744Z" fill="#E2B647"/>
<path d="M29.6318 22.783C31.9358 25.087 31.2318 27.583 28.1598 28.415C25.0238 29.247 20.6718 28.095 18.3678 25.791C16.0638 23.487 16.7678 20.991 19.8398 20.159C22.9758 19.263 27.3278 20.479 29.6318 22.783ZM19.7758 25.407C21.5038 27.135 24.7678 28.031 27.0718 27.391C29.3758 26.751 29.8878 24.895 28.1598 23.167C26.4318 21.439 23.1678 20.543 20.8638 21.183C18.5598 21.759 18.1118 23.679 19.7758 25.407Z" fill="#F8D770"/>
<path d="M16.8324 17.6007C16.9604 17.5367 17.1524 17.4727 17.3444 17.4727C17.5364 17.4727 17.7284 17.5367 17.9204 17.6007L16.8324 18.2407C16.7044 18.0487 16.5764 17.9207 16.5764 17.8567C16.6404 17.7927 16.7044 17.6647 16.8324 17.6007ZM16.4484 19.0087C16.6404 19.2007 16.7044 19.3287 16.7044 19.4567C16.7044 19.5847 16.6404 19.6487 16.5124 19.7127C16.3844 19.7767 16.1924 19.8407 16.0004 19.8407C15.8084 19.8407 15.5524 19.7767 15.3604 19.6487L16.4484 19.0087Z" fill="#E2B647"/>
<path d="M17.792 19.456C17.856 19.712 17.664 19.904 17.28 20.096C16.896 20.288 16.512 20.416 16 20.352C15.488 20.352 15.04 20.224 14.592 19.968L14.144 20.224L13.76 19.968L14.208 19.712C13.696 19.328 13.44 18.944 13.376 18.432L14.336 18.368C14.4 18.752 14.592 19.072 14.848 19.328L16.064 18.624C15.68 18.304 15.488 17.984 15.488 17.792C15.424 17.536 15.616 17.344 15.936 17.152C16.32 16.96 16.704 16.832 17.152 16.832C17.6 16.832 18.048 16.96 18.496 17.152L18.816 16.96L19.2 17.216L18.88 17.408C19.328 17.664 19.584 18.048 19.712 18.432L18.752 18.496C18.688 18.24 18.496 17.984 18.24 17.792L17.088 18.432C17.536 18.944 17.728 19.2 17.792 19.456ZM15.936 19.84C16.128 19.84 16.32 19.84 16.448 19.712C16.576 19.648 16.64 19.52 16.64 19.456C16.64 19.328 16.512 19.2 16.384 19.008L15.296 19.648C15.552 19.776 15.744 19.776 15.936 19.84ZM16.896 18.304L17.984 17.664C17.792 17.536 17.6 17.536 17.408 17.536C17.216 17.536 17.024 17.536 16.896 17.664C16.768 17.728 16.704 17.856 16.704 17.92C16.64 17.984 16.704 18.112 16.896 18.304Z" fill="#F8D770"/>
<path d="M20.2883 16.4472C22.4003 17.6632 22.4003 19.6472 20.2883 20.8632C18.1763 22.0792 14.7843 22.0792 12.7363 20.8632C10.6243 19.6472 10.6243 17.6632 12.7363 16.4472C14.7843 15.2312 18.1763 15.2312 20.2883 16.4472ZM16.0643 20.4152C16.5123 20.4152 16.9603 20.3512 17.3443 20.1592C17.7283 19.9672 17.8563 19.7112 17.8563 19.5192C17.7923 19.2632 17.6003 19.0072 17.2803 18.6872L18.4323 18.0472C18.6883 18.2392 18.8803 18.4952 18.9443 18.7512L19.9043 18.6872C19.7763 18.3032 19.5203 17.9832 19.0723 17.6632L19.3923 17.4712L19.0083 17.2152L18.6243 17.2792C18.1763 17.0872 17.7283 16.9592 17.2803 16.9592C16.8323 16.9592 16.3843 17.0232 16.0643 17.2792C15.6803 17.4712 15.5523 17.7272 15.6163 17.9192C15.6163 18.1752 15.8723 18.4312 16.1923 18.7512L14.9763 19.4552C14.6563 19.1992 14.4643 18.8792 14.4643 18.4952H13.4403C13.5043 19.0072 13.7603 19.3912 14.2723 19.7752L13.8243 20.0312L14.2083 20.2872L14.6563 20.0312C15.1043 20.2872 15.5523 20.3512 16.0643 20.4152Z" fill="#E2B647"/>
<path d="M23.6802 18.689V21.441C23.6802 22.465 22.9762 23.553 21.6322 24.321C18.8802 25.921 14.3362 25.921 11.5202 24.321C10.1122 23.489 9.4082 22.465 9.4082 21.377V18.625C9.4082 19.713 10.1122 20.737 11.5202 21.569C14.3362 23.169 18.8802 23.169 21.6322 21.569C22.9762 20.801 23.6802 19.713 23.6802 18.689Z" fill="#F2CA5C"/>
<path d="M21.5682 15.7436C24.3842 17.3436 24.3842 19.9676 21.6322 21.5676C18.8802 23.1676 14.3362 23.1676 11.5202 21.5676C8.7042 19.9676 8.7042 17.3436 11.5202 15.7436C14.3362 14.1436 18.7522 14.0796 21.5682 15.7436ZM12.7362 20.8636C14.8482 22.0796 18.2402 22.0796 20.2882 20.8636C22.3362 19.6476 22.3362 17.6636 20.2882 16.4476C18.1762 15.2316 14.7842 15.2316 12.7362 16.4476C10.6242 17.6636 10.6242 19.6476 12.7362 20.8636Z" fill="#F8D770"/>
<path d="M18.496 1.60156L18.432 23.2976C18.432 23.5536 18.24 23.8096 17.92 24.0016C17.28 24.3856 16.256 24.3856 15.552 24.0016C15.232 23.8096 15.04 23.5536 15.04 23.2976L15.104 1.60156C15.104 1.85756 15.296 2.11356 15.616 2.30556C16.256 2.68956 17.28 2.68956 17.984 2.30556C18.304 2.11356 18.496 1.85756 18.496 1.60156Z" fill="#73BD1E"/>
<path d="M17.9837 0.89625C18.6237 1.28025 18.6237 1.85625 17.9837 2.24025C17.3437 2.62425 16.3197 2.62425 15.6157 2.24025C14.9757 1.85625 14.9757 1.28025 15.6157 0.89625C16.3197 0.57625 17.3437 0.57625 17.9837 0.89625Z" fill="#ABDA32"/>
<path d="M15.1681 22.6556C15.2321 22.5276 15.2961 22.3996 15.4881 22.2716C15.6161 22.1436 15.8081 22.0796 16.0641 22.0156L15.6801 23.1676C15.4241 23.1676 15.2961 23.1036 15.2321 23.0396C15.1681 22.9116 15.1041 22.7836 15.1681 22.6556ZM15.7441 23.9996C16.0001 23.9996 16.1281 24.0636 16.2561 24.1276C16.3201 24.1916 16.3201 24.3196 16.2561 24.4476C16.1921 24.5756 16.0641 24.7676 15.9361 24.8956C15.7441 25.0236 15.5521 25.1516 15.3601 25.2156L15.7441 23.9996Z" fill="#E2B647"/>
<path d="M17.0876 23.4248C17.2796 23.5528 17.2796 23.8728 17.1516 24.2568C17.0236 24.6408 16.7676 25.0248 16.3836 25.2808C15.9996 25.6008 15.5516 25.7928 15.1036 25.9208L14.9116 26.4328L14.4636 26.4968L14.6556 25.9848C14.0156 26.0488 13.5676 25.9208 13.1836 25.6008L13.8876 24.8968C14.1436 25.1528 14.5276 25.2808 14.9116 25.2168L15.3596 23.9368C14.8476 23.9368 14.5276 23.8088 14.3356 23.6808C14.1436 23.5528 14.1436 23.2328 14.2716 22.8488C14.3996 22.4648 14.6556 22.1448 15.0396 21.8248C15.4236 21.5048 15.8076 21.3128 16.2556 21.1848L16.3836 20.8648L16.8316 20.8008L16.7036 21.1208C17.2156 21.0568 17.6636 21.1208 17.9836 21.3128L17.3436 22.0168C17.0876 21.8888 16.8316 21.8248 16.4476 21.8248L15.9996 23.1048C16.5756 23.1688 16.8956 23.2328 17.0876 23.4248ZM15.9356 24.8968C16.1276 24.7688 16.1916 24.6408 16.2556 24.4488C16.3196 24.3208 16.3196 24.1928 16.2556 24.1288C16.1916 24.0648 15.9996 24.0008 15.7436 24.0008L15.3596 25.2168C15.6156 25.1528 15.8076 25.0248 15.9356 24.8968ZM15.6796 23.1048L16.0636 21.9528C15.8716 22.0168 15.6796 22.0808 15.4876 22.2088C15.3596 22.3368 15.2316 22.4648 15.1676 22.5928C15.1036 22.7208 15.1036 22.8488 15.1676 22.9128C15.2956 23.0408 15.4236 23.1048 15.6796 23.1048Z" fill="#F8D770"/>
<path d="M17.0238 19.5177C19.3918 19.0697 20.6718 20.5417 19.9038 22.8457C19.1358 25.1497 16.5758 27.3257 14.1438 27.8377C11.7758 28.2857 10.4958 26.8137 11.2638 24.5097C12.0958 22.2057 14.6558 19.9657 17.0238 19.5177ZM16.3838 25.2777C16.7678 24.9577 17.0238 24.6377 17.1518 24.2537C17.2798 23.8697 17.2798 23.6137 17.0878 23.4217C16.8958 23.2937 16.5758 23.1657 16.0638 23.1657L16.5118 21.8857C16.8318 21.8857 17.1518 21.9497 17.4078 22.0777L18.0478 21.3737C17.6638 21.1817 17.2798 21.1177 16.7678 21.1817L16.8958 20.8617L16.4478 20.9257L16.3198 21.2457C15.8718 21.3737 15.4238 21.5657 15.1038 21.8857C14.7198 22.2057 14.4638 22.5257 14.3358 22.9097C14.2078 23.2937 14.2078 23.5497 14.3998 23.7417C14.5918 23.8697 14.9118 23.9977 15.4238 23.9977L14.9758 25.2777C14.5918 25.2777 14.2718 25.1497 13.9518 24.9577L13.1838 25.5977C13.5678 25.9177 14.0158 26.0457 14.6558 25.9817L14.4638 26.4937L14.9118 26.4297L15.1038 25.9177C15.6158 25.7897 15.9998 25.5977 16.3838 25.2777Z" fill="#E2B647"/>
<path d="M21.0562 19.0078L22.8482 21.0558C23.5522 21.8238 23.6802 23.1038 23.1682 24.6398C22.1442 27.7118 18.6882 30.6558 15.5522 31.2318C13.9522 31.5518 12.7362 31.1678 12.0322 30.3998L10.2402 28.3518C10.9442 29.1838 12.1602 29.5038 13.7602 29.1838C16.9602 28.5438 20.3522 25.5998 21.3762 22.5918C21.8882 21.0558 21.6962 19.7758 21.0562 19.0078Z" fill="#F2CA5C"/>
<path d="M17.472 18.1747C20.672 17.5347 22.4 19.5187 21.312 22.5907C20.224 25.6627 16.832 28.6067 13.696 29.1827C10.496 29.8227 8.76797 27.8387 9.85597 24.7667C10.944 21.6947 14.336 18.7507 17.472 18.1747ZM14.208 27.7747C16.576 27.3267 19.136 25.0867 19.968 22.7827C20.736 20.4787 19.456 19.0067 17.088 19.4547C14.72 19.9027 12.16 22.1427 11.328 24.3827C10.496 26.7507 11.84 28.2227 14.208 27.7747Z" fill="#F8D770"/>
<path d="M26.8795 1.08892C27.4555 6.84892 23.2315 11.0729 17.4715 10.4969C16.8955 4.80092 21.1195 0.576919 26.8795 1.08892Z" fill="#ABDA32"/>
<path d="M26.8797 1.08984C27.4557 6.84984 23.2317 11.0738 17.4717 10.4978L26.8797 1.08984Z" fill="#73BD1E"/>
</svg>
