<svg width="40" height="37" viewBox="0 0 40 37" fill="none" xmlns="http://www.w3.org/2000/svg">
<path d="M20.4997 29.2487H12.0797C10.5097 29.2487 9.21973 27.9887 9.21973 26.4287L9.21973 11.5887C9.21973 10.0587 9.78973 8.86872 10.8297 8.21872C11.8797 7.55872 13.2397 7.57872 14.6497 8.27872L19.0897 10.4587C20.2997 11.0587 21.2497 12.5687 21.2497 13.9087V28.4987C21.2497 28.9087 20.9097 29.2487 20.4997 29.2487ZM12.5597 9.24872C12.2097 9.24872 11.8897 9.32872 11.6197 9.49872C11.0397 9.85872 10.7197 10.6087 10.7197 11.5887L10.7197 26.4287C10.7197 27.1587 11.3297 27.7487 12.0797 27.7487H19.7497V13.9087C19.7497 13.1387 19.1297 12.1487 18.4197 11.8087L13.9797 9.62872C13.4697 9.37872 12.9897 9.24872 12.5597 9.24872Z" fill="white"/>
<path d="M26.81 29.2493H20.5C20.09 29.2493 19.75 28.9093 19.75 28.4993V16.9193C19.75 16.6893 19.85 16.4793 20.03 16.3393C20.21 16.1993 20.43 16.1393 20.66 16.1893L21.13 16.2893L27.67 17.7493C29.66 18.1893 30.66 19.3593 30.72 21.3493C30.73 21.3493 30.73 21.4493 30.73 21.5593V25.3393C30.72 27.8993 29.37 29.2493 26.81 29.2493ZM21.25 27.7493H26.81C28.57 27.7493 29.22 27.0993 29.22 25.3393V21.4793C29.17 20.1093 28.65 19.4993 27.34 19.2093L21.25 17.8493V27.7493Z" fill="white"/>
<path d="M16.97 16.25H13.5C13.09 16.25 12.75 15.91 12.75 15.5C12.75 15.09 13.09 14.75 13.5 14.75H16.97C17.38 14.75 17.72 15.09 17.72 15.5C17.72 15.91 17.39 16.25 16.97 16.25Z" fill="white"/>
<path d="M16.97 20.25H13.5C13.09 20.25 12.75 19.91 12.75 19.5C12.75 19.09 13.09 18.75 13.5 18.75H16.97C17.38 18.75 17.72 19.09 17.72 19.5C17.72 19.91 17.39 20.25 16.97 20.25Z" fill="white"/>
<path d="M23.2197 24.2505C21.5697 24.2505 20.2197 22.9005 20.2197 21.2505V17.0205C20.2197 16.7905 20.3197 16.5805 20.4997 16.4305C20.6797 16.2805 20.9097 16.2305 21.1297 16.2805L25.6297 17.2905C25.9697 17.3705 26.2197 17.6705 26.2197 18.0205V21.2405C26.2197 22.9005 24.8797 24.2505 23.2197 24.2505ZM21.7197 17.9605V21.2505C21.7197 22.0805 22.3897 22.7505 23.2197 22.7505C24.0497 22.7505 24.7197 22.0805 24.7197 21.2505V18.6305L21.7197 17.9605Z" fill="white"/>
<path d="M27.7197 24.2487C26.0697 24.2487 24.7197 22.8987 24.7197 21.2487V18.0287C24.7197 17.7987 24.8197 17.5887 24.9997 17.4487C25.1797 17.3087 25.4097 17.2487 25.6297 17.2987L27.6597 17.7487C29.6497 18.1887 30.6497 19.3587 30.7097 21.3487C30.7097 21.3687 30.7097 21.3887 30.7097 21.4087C30.6297 22.9987 29.3197 24.2487 27.7197 24.2487ZM26.2197 18.9587V21.2487C26.2197 22.0787 26.8897 22.7487 27.7197 22.7487C28.5097 22.7487 29.1597 22.1387 29.2097 21.3587C29.1597 20.0987 28.6397 19.4987 27.3397 19.2087L26.2197 18.9587Z" fill="white"/>
</svg>
