<svg width="20" height="20" viewBox="0 0 20 20" fill="none" xmlns="http://www.w3.org/2000/svg">
<path d="M14.167 18.959H5.83366C2.96699 18.959 1.04199 17.034 1.04199 14.1673V10.0007C1.04199 7.43398 2.62533 5.57566 5.08366 5.26732C5.31699 5.23399 5.57533 5.20898 5.83366 5.20898H14.167C14.367 5.20898 14.6253 5.21732 14.892 5.25898C17.3503 5.54232 18.9587 7.40898 18.9587 10.0007V14.1673C18.9587 17.034 17.0337 18.959 14.167 18.959ZM5.83366 6.45898C5.63366 6.45898 5.44199 6.47564 5.25033 6.50064C3.41699 6.73397 2.29199 8.06732 2.29199 10.0007V14.1673C2.29199 16.3173 3.68366 17.709 5.83366 17.709H14.167C16.317 17.709 17.7087 16.3173 17.7087 14.1673V10.0007C17.7087 8.05065 16.567 6.70899 14.717 6.49232C14.517 6.45899 14.342 6.45898 14.167 6.45898H5.83366Z" fill="white"/>
<path d="M5.15805 6.50756C4.95805 6.50756 4.77471 6.41589 4.64971 6.24923C4.50805 6.05756 4.49138 5.80756 4.59971 5.59923C4.74138 5.31589 4.94138 5.04089 5.19971 4.79089L7.90805 2.07422C9.29138 0.699219 11.5414 0.699219 12.9247 2.07422L14.383 3.54923C14.9997 4.15757 15.3747 4.97424 15.4164 5.8409C15.4247 6.03257 15.3497 6.21588 15.208 6.34088C15.0664 6.46588 14.8747 6.52423 14.6914 6.4909C14.5247 6.4659 14.3497 6.45756 14.1664 6.45756H5.83305C5.63305 6.45756 5.44138 6.47422 5.24971 6.49922C5.22471 6.50755 5.19138 6.50756 5.15805 6.50756ZM6.54971 5.20756H14.0164C13.908 4.92423 13.733 4.6659 13.4997 4.43257L12.033 2.94923C11.1414 2.0659 9.68305 2.0659 8.78305 2.94923L6.54971 5.20756Z" fill="white"/>
<path d="M18.3337 14.3743H15.8337C14.567 14.3743 13.542 13.3493 13.542 12.0827C13.542 10.816 14.567 9.79102 15.8337 9.79102H18.3337C18.6753 9.79102 18.9587 10.0743 18.9587 10.416C18.9587 10.7577 18.6753 11.041 18.3337 11.041H15.8337C15.2587 11.041 14.792 11.5077 14.792 12.0827C14.792 12.6577 15.2587 13.1243 15.8337 13.1243H18.3337C18.6753 13.1243 18.9587 13.4077 18.9587 13.7493C18.9587 14.091 18.6753 14.3743 18.3337 14.3743Z" fill="white"/>
</svg>
